<?xml version="1.0" encoding="utf-8"?>
<!-- Generator: Adobe Illustrator 21.0.0, SVG Export Plug-In . SVG Version: 6.00 Build 0)  -->
<svg version="1.1" xmlns="http://www.w3.org/2000/svg" xmlns:xlink="http://www.w3.org/1999/xlink" x="0px" y="0px"
	 viewBox="0 0 350 372" style="enable-background:new 0 0 350 372;" xml:space="preserve">
<style type="text/css">
	.st0{fill:none;stroke:#333333;}
	.st1{fill:#666666;}
	.st2{fill:#1A1A1A;}
	.st3{fill:#FFD9D9;stroke:#333333;stroke-width:2;}
	.st4{fill:#FFA1A1;stroke:#333333;stroke-width:2;}
	.st5{fill:none;stroke:#333333;stroke-width:3;}
	.st6{fill:none;stroke:#1A1A1A;}
	.st7{fill:#333333;}
</style>
<g id="Layer_3">
	<line class="st0" x1="56.3" y1="52" x2="64.4" y2="52"/>
	<line class="st0" x1="56.3" y1="80.7" x2="64.4" y2="80.7"/>
	<line class="st0" x1="56.3" y1="109.4" x2="64.4" y2="109.4"/>
	<line class="st0" x1="56.3" y1="138.1" x2="64.4" y2="138.1"/>
	<line class="st0" x1="56.3" y1="166.8" x2="64.4" y2="166.8"/>
	<line class="st0" x1="56.3" y1="195.5" x2="64.4" y2="195.5"/>
	<line class="st0" x1="56.3" y1="224.2" x2="64.4" y2="224.2"/>
	<line class="st0" x1="56.3" y1="252.9" x2="64.4" y2="252.9"/>
	<line class="st0" x1="56.3" y1="281.6" x2="64.4" y2="281.6"/>
	<line class="st0" x1="56.3" y1="310.3" x2="64.4" y2="310.3"/>
	<line class="st0" x1="56.3" y1="339" x2="64.4" y2="339"/>
	<line class="st0" x1="64.4" y1="51.5" x2="64.4" y2="339.5"/>
	<g>
		<path class="st1" d="M35.3,48.2L35.3,48.2L34,48.9l-0.2-0.8l1.7-0.9h0.9V55h-1V48.2z"/>
		<path class="st1" d="M44.7,51c0,2.7-1,4.1-2.7,4.1c-1.5,0-2.6-1.4-2.6-4c0-2.6,1.1-4.1,2.7-4.1C43.7,47.1,44.7,48.5,44.7,51z
			 M40.4,51.1c0,2,0.6,3.2,1.6,3.2c1.1,0,1.6-1.3,1.6-3.2c0-1.9-0.5-3.2-1.6-3.2C41.1,47.9,40.4,49,40.4,51.1z"/>
		<path class="st1" d="M51.1,51c0,2.7-1,4.1-2.7,4.1c-1.5,0-2.6-1.4-2.6-4c0-2.6,1.1-4.1,2.7-4.1C50.2,47.1,51.1,48.5,51.1,51z
			 M46.9,51.1c0,2,0.6,3.2,1.6,3.2c1.1,0,1.6-1.3,1.6-3.2c0-1.9-0.5-3.2-1.6-3.2C47.6,47.9,46.9,49,46.9,51.1z"/>
	</g>
	<g>
		<path class="st2" d="M191.1,25.6h-3.7V29h4.1v1h-5.3v-9.4h5.1v1h-3.9v3h3.7V25.6z"/>
		<path class="st2" d="M193.3,28.7c0.4,0.2,1,0.5,1.6,0.5c0.9,0,1.3-0.4,1.3-1c0-0.6-0.4-0.9-1.3-1.2c-1.2-0.4-1.8-1.1-1.8-1.9
			c0-1.1,0.9-2,2.3-2c0.7,0,1.3,0.2,1.7,0.4l-0.3,0.9c-0.3-0.2-0.8-0.4-1.4-0.4c-0.7,0-1.1,0.4-1.1,0.9c0,0.6,0.4,0.8,1.3,1.1
			c1.2,0.4,1.8,1,1.8,2c0,1.2-0.9,2-2.5,2c-0.7,0-1.4-0.2-1.9-0.5L193.3,28.7z"/>
		<path class="st2" d="M204.2,29.8c-0.3,0.2-1,0.4-1.9,0.4c-2,0-3.4-1.4-3.4-3.5c0-2.1,1.4-3.6,3.6-3.6c0.7,0,1.4,0.2,1.7,0.4
			l-0.3,1c-0.3-0.2-0.8-0.3-1.4-0.3c-1.6,0-2.4,1.1-2.4,2.6c0,1.6,1,2.5,2.4,2.5c0.7,0,1.2-0.2,1.5-0.3L204.2,29.8z"/>
		<path class="st2" d="M209.7,30l-0.1-0.9h0c-0.4,0.5-1.1,1-2.1,1c-1.4,0-2.1-1-2.1-1.9c0-1.6,1.5-2.5,4.1-2.5v-0.1
			c0-0.6-0.2-1.6-1.5-1.6c-0.6,0-1.3,0.2-1.8,0.5l-0.3-0.8c0.6-0.4,1.4-0.6,2.2-0.6c2.1,0,2.6,1.4,2.6,2.8v2.5c0,0.6,0,1.2,0.1,1.6
			H209.7z M209.5,26.5c-1.3,0-2.9,0.2-2.9,1.5c0,0.8,0.5,1.2,1.2,1.2c0.9,0,1.4-0.6,1.6-1.1c0-0.1,0.1-0.3,0.1-0.4V26.5z"/>
		<path class="st2" d="M213,20.1h1.2V30H213V20.1z"/>
		<path class="st2" d="M220.4,30l-0.1-0.9h0c-0.4,0.5-1.1,1-2.1,1c-1.4,0-2.1-1-2.1-1.9c0-1.6,1.5-2.5,4.1-2.5v-0.1
			c0-0.6-0.2-1.6-1.5-1.6c-0.6,0-1.3,0.2-1.8,0.5l-0.3-0.8c0.6-0.4,1.4-0.6,2.2-0.6c2.1,0,2.6,1.4,2.6,2.8v2.5c0,0.6,0,1.2,0.1,1.6
			H220.4z M220.3,26.5c-1.3,0-2.9,0.2-2.9,1.5c0,0.8,0.5,1.2,1.2,1.2c0.9,0,1.4-0.6,1.6-1.1c0-0.1,0.1-0.3,0.1-0.4V26.5z"/>
	</g>
	<g>
		<path class="st1" d="M40.1,82.8c0.2,0,0.5,0,0.9,0c0.6-0.1,1.2-0.3,1.6-0.8c0.5-0.5,0.9-1.2,1-2.1h0c-0.4,0.5-1.1,0.8-1.8,0.8
			c-1.4,0-2.3-1.1-2.3-2.4c0-1.5,1.1-2.8,2.7-2.8s2.6,1.3,2.6,3.3c0,1.7-0.6,2.9-1.3,3.7c-0.6,0.6-1.4,0.9-2.3,1
			c-0.4,0.1-0.7,0.1-1,0.1V82.8z M40.5,78.3c0,1,0.6,1.7,1.5,1.7c0.7,0,1.3-0.3,1.5-0.8c0.1-0.1,0.1-0.2,0.1-0.4
			c0-1.3-0.5-2.4-1.6-2.4C41.1,76.4,40.5,77.2,40.5,78.3z"/>
		<path class="st1" d="M51.1,79.5c0,2.7-1,4.1-2.7,4.1c-1.5,0-2.6-1.4-2.6-4c0-2.6,1.1-4.1,2.7-4.1C50.2,75.6,51.1,77,51.1,79.5z
			 M46.9,79.6c0,2,0.6,3.2,1.6,3.2c1.1,0,1.6-1.3,1.6-3.2c0-1.9-0.5-3.2-1.6-3.2C47.6,76.4,46.9,77.5,46.9,79.6z"/>
	</g>
	<g>
		<path class="st1" d="M39.4,111c0-1,0.6-1.7,1.5-2.1l0,0c-0.9-0.4-1.2-1.1-1.2-1.8c0-1.2,1-2.1,2.4-2.1c1.5,0,2.3,0.9,2.3,1.9
			c0,0.7-0.3,1.4-1.3,1.8v0c1,0.4,1.6,1.1,1.6,2c0,1.4-1.2,2.3-2.7,2.3C40.4,113.1,39.4,112.2,39.4,111z M43.6,111
			c0-0.9-0.7-1.4-1.7-1.7c-0.9,0.3-1.4,0.9-1.4,1.6c0,0.8,0.6,1.5,1.6,1.5C43,112.4,43.6,111.8,43.6,111z M40.7,107.1
			c0,0.8,0.6,1.2,1.5,1.4c0.7-0.2,1.2-0.7,1.2-1.4c0-0.6-0.4-1.3-1.3-1.3C41.2,105.8,40.7,106.4,40.7,107.1z"/>
		<path class="st1" d="M51.1,109c0,2.7-1,4.1-2.7,4.1c-1.5,0-2.6-1.4-2.6-4c0-2.6,1.1-4.1,2.7-4.1C50.2,105.1,51.1,106.5,51.1,109z
			 M46.9,109.1c0,2,0.6,3.2,1.6,3.2c1.1,0,1.6-1.3,1.6-3.2c0-1.9-0.5-3.2-1.6-3.2C47.6,105.9,46.9,107,46.9,109.1z"/>
	</g>
	<g>
		<path class="st1" d="M44.6,134.2v0.7l-3.4,7.1h-1.1l3.4-6.9v0h-3.8v-0.9H44.6z"/>
		<path class="st1" d="M51.1,138c0,2.7-1,4.1-2.7,4.1c-1.5,0-2.6-1.4-2.6-4c0-2.6,1.1-4.1,2.7-4.1C50.2,134.1,51.1,135.5,51.1,138z
			 M46.9,138.1c0,2,0.6,3.2,1.6,3.2c1.1,0,1.6-1.3,1.6-3.2c0-1.9-0.5-3.2-1.6-3.2C47.6,134.9,46.9,136,46.9,138.1z"/>
	</g>
	<g>
		<path class="st1" d="M44,162.4c-0.2,0-0.5,0-0.8,0c-1.7,0.3-2.5,1.5-2.7,2.8h0c0.4-0.5,1-0.9,1.9-0.9c1.4,0,2.4,1,2.4,2.5
			c0,1.4-1,2.7-2.6,2.7c-1.7,0-2.8-1.3-2.8-3.3c0-1.5,0.6-2.7,1.3-3.5c0.6-0.6,1.5-1,2.5-1.2c0.3,0,0.6-0.1,0.8-0.1V162.4z
			 M43.7,166.9c0-1.1-0.6-1.8-1.6-1.8c-0.6,0-1.2,0.4-1.5,1c-0.1,0.1-0.1,0.3-0.1,0.5c0,1.3,0.6,2.2,1.7,2.2
			C43,168.8,43.7,168.1,43.7,166.9z"/>
		<path class="st1" d="M51.1,165.5c0,2.7-1,4.1-2.7,4.1c-1.5,0-2.6-1.4-2.6-4c0-2.6,1.1-4.1,2.7-4.1C50.2,161.6,51.1,163,51.1,165.5
			z M46.9,165.6c0,2,0.6,3.2,1.6,3.2c1.1,0,1.6-1.3,1.6-3.2c0-1.9-0.5-3.2-1.6-3.2C47.6,162.4,46.9,163.5,46.9,165.6z"/>
	</g>
	<g>
		<path class="st1" d="M44.2,191.6h-3l-0.3,2c0.2,0,0.3,0,0.6,0c0.6,0,1.2,0.1,1.7,0.4c0.6,0.3,1.1,1,1.1,2c0,1.5-1.2,2.7-2.9,2.7
			c-0.9,0-1.6-0.2-1.9-0.5l0.3-0.8c0.3,0.2,1,0.4,1.7,0.4c1,0,1.8-0.6,1.8-1.7c0-1-0.7-1.7-2.2-1.7c-0.4,0-0.8,0-1.1,0.1l0.5-3.7
			h3.7V191.6z"/>
		<path class="st1" d="M51.1,194.5c0,2.7-1,4.1-2.7,4.1c-1.5,0-2.6-1.4-2.6-4c0-2.6,1.1-4.1,2.7-4.1C50.2,190.6,51.1,192,51.1,194.5
			z M46.9,194.6c0,2,0.6,3.2,1.6,3.2c1.1,0,1.6-1.3,1.6-3.2c0-1.9-0.5-3.2-1.6-3.2C47.6,191.4,46.9,192.5,46.9,194.6z"/>
	</g>
	<g>
		<path class="st1" d="M42.8,226.5v-2.1h-3.6v-0.7l3.5-5h1.1v4.8h1.1v0.8h-1.1v2.1H42.8z M42.8,223.6v-2.6c0-0.4,0-0.8,0-1.2h0
			c-0.2,0.5-0.4,0.8-0.6,1.2l-1.9,2.7v0H42.8z"/>
		<path class="st1" d="M51.1,222.5c0,2.7-1,4.1-2.7,4.1c-1.5,0-2.6-1.4-2.6-4c0-2.6,1.1-4.1,2.7-4.1C50.2,218.6,51.1,220,51.1,222.5
			z M46.9,222.6c0,2,0.6,3.2,1.6,3.2c1.1,0,1.6-1.3,1.6-3.2c0-1.9-0.5-3.2-1.6-3.2C47.6,219.4,46.9,220.5,46.9,222.6z"/>
	</g>
	<g>
		<path class="st1" d="M39.8,254.3c0.3,0.2,1,0.5,1.7,0.5c1.4,0,1.8-0.9,1.8-1.5c0-1.1-1-1.6-2-1.6h-0.6v-0.8h0.6
			c0.8,0,1.7-0.4,1.7-1.3c0-0.6-0.4-1.2-1.4-1.2c-0.6,0-1.2,0.3-1.6,0.5l-0.3-0.8c0.4-0.3,1.2-0.6,2-0.6c1.5,0,2.2,0.9,2.2,1.9
			c0,0.8-0.5,1.5-1.4,1.8v0c1,0.2,1.7,0.9,1.7,2c0,1.2-1,2.3-2.8,2.3c-0.9,0-1.6-0.3-2-0.5L39.8,254.3z"/>
		<path class="st1" d="M51.1,251.5c0,2.7-1,4.1-2.7,4.1c-1.5,0-2.6-1.4-2.6-4c0-2.6,1.1-4.1,2.7-4.1C50.2,247.6,51.1,249,51.1,251.5
			z M46.9,251.6c0,2,0.6,3.2,1.6,3.2c1.1,0,1.6-1.3,1.6-3.2c0-1.9-0.5-3.2-1.6-3.2C47.6,248.4,46.9,249.5,46.9,251.6z"/>
	</g>
	<g>
		<path class="st1" d="M39.5,284.5v-0.6l0.8-0.8c2-1.9,2.9-2.9,2.9-4.1c0-0.8-0.4-1.5-1.5-1.5c-0.7,0-1.3,0.4-1.7,0.7l-0.3-0.7
			c0.5-0.5,1.3-0.8,2.2-0.8c1.7,0,2.4,1.2,2.4,2.3c0,1.4-1,2.6-2.7,4.2l-0.6,0.6v0h3.5v0.9H39.5z"/>
		<path class="st1" d="M51.1,280.5c0,2.7-1,4.1-2.7,4.1c-1.5,0-2.6-1.4-2.6-4c0-2.6,1.1-4.1,2.7-4.1C50.2,276.6,51.1,278,51.1,280.5
			z M46.9,280.6c0,2,0.6,3.2,1.6,3.2c1.1,0,1.6-1.3,1.6-3.2c0-1.9-0.5-3.2-1.6-3.2C47.6,277.4,46.9,278.5,46.9,280.6z"/>
	</g>
	<g>
		<path class="st1" d="M41.8,306.7L41.8,306.7l-1.4,0.7l-0.2-0.8l1.7-0.9h0.9v7.8h-1V306.7z"/>
		<path class="st1" d="M51.1,309.5c0,2.7-1,4.1-2.7,4.1c-1.5,0-2.6-1.4-2.6-4c0-2.6,1.1-4.1,2.7-4.1C50.2,305.6,51.1,307,51.1,309.5
			z M46.9,309.6c0,2,0.6,3.2,1.6,3.2c1.1,0,1.6-1.3,1.6-3.2c0-1.9-0.5-3.2-1.6-3.2C47.6,306.4,46.9,307.5,46.9,309.6z"/>
	</g>
	<g>
		<path class="st1" d="M51.1,338.5c0,2.7-1,4.1-2.7,4.1c-1.5,0-2.6-1.4-2.6-4c0-2.6,1.1-4.1,2.7-4.1C50.2,334.6,51.1,336,51.1,338.5
			z M46.9,338.6c0,2,0.6,3.2,1.6,3.2c1.1,0,1.6-1.3,1.6-3.2c0-1.9-0.5-3.2-1.6-3.2C47.6,335.4,46.9,336.5,46.9,338.6z"/>
	</g>
</g>
<g id="Layer_2">
	<rect x="98.8" y="181.5" class="st3" width="36" height="63.5"/>
	<rect x="98.8" y="120" class="st4" width="35.3" height="61.7"/>
	<line class="st5" x1="116.8" y1="120" x2="116.8" y2="80.7"/>
	<rect x="98.8" y="120" class="st5" width="36" height="125"/>
	<line class="st5" x1="99.5" y1="181.7" x2="134.2" y2="181.7"/>
	<line class="st5" x1="116.8" y1="245" x2="116.8" y2="304"/>
	<line class="st5" x1="97.3" y1="80.3" x2="136.3" y2="80.3"/>
	<line class="st5" x1="97.3" y1="303.3" x2="136.3" y2="303.3"/>
	<polyline class="st6" points="179.5,25 43.4,25 43.4,37 	"/>
	<circle class="st7" cx="116.8" cy="332" r="4"/>
	<g>
		<g>
			<path class="st2" d="M190.7,80.6h-3.4v3.2h3.8v0.9h-4.9v-8.8h4.7v0.9h-3.6v2.8h3.4V80.6z"/>
			<path class="st2" d="M193.4,78.4l0.9,1.4c0.2,0.4,0.4,0.7,0.6,1h0c0.2-0.4,0.4-0.7,0.6-1l0.9-1.3h1.2l-2.1,3l2.2,3.2h-1.3
				l-0.9-1.4c-0.2-0.4-0.5-0.7-0.7-1.1h0c-0.2,0.4-0.4,0.7-0.7,1.1l-0.9,1.4H192l2.2-3.2l-2.1-3.1H193.4z"/>
			<path class="st2" d="M200.7,76.6v1.8h1.6v0.9h-1.6v3.4c0,0.8,0.2,1.2,0.9,1.2c0.3,0,0.5,0,0.7-0.1l0.1,0.9
				c-0.2,0.1-0.6,0.2-1,0.2c-0.5,0-1-0.2-1.2-0.5c-0.3-0.3-0.4-0.9-0.4-1.6v-3.4h-1v-0.9h1v-1.5L200.7,76.6z"/>
			<path class="st2" d="M204,80.3c0-0.7,0-1.4-0.1-2h1l0,1.2h0.1c0.3-0.8,1-1.4,1.7-1.4c0.1,0,0.2,0,0.3,0v1.1c-0.1,0-0.2,0-0.4,0
				c-0.8,0-1.4,0.6-1.5,1.5c0,0.2-0.1,0.3-0.1,0.5v3.4H204V80.3z"/>
			<path class="st2" d="M209.1,81.7c0,1.5,1,2.2,2.2,2.2c0.8,0,1.3-0.1,1.7-0.3l0.2,0.8c-0.4,0.2-1.1,0.4-2.1,0.4
				c-1.9,0-3.1-1.3-3.1-3.2s1.1-3.4,3-3.4c2.1,0,2.6,1.8,2.6,3c0,0.2,0,0.4,0,0.5H209.1z M212.4,80.9c0-0.7-0.3-1.9-1.6-1.9
				c-1.2,0-1.7,1.1-1.8,1.9H212.4z"/>
			<path class="st2" d="M215.3,80.1c0-0.6,0-1.2-0.1-1.7h1l0.1,1h0c0.4-0.6,0.9-1.2,2-1.2c0.9,0,1.5,0.5,1.8,1.3h0
				c0.2-0.4,0.4-0.6,0.7-0.8c0.4-0.3,0.8-0.4,1.4-0.4c0.8,0,2.1,0.5,2.1,2.7v3.7h-1.1v-3.6c0-1.2-0.4-1.9-1.4-1.9
				c-0.7,0-1.2,0.5-1.4,1c-0.1,0.2-0.1,0.4-0.1,0.6v3.9h-1.1v-3.8c0-1-0.4-1.7-1.3-1.7c-0.7,0-1.2,0.6-1.4,1.1
				c-0.1,0.2-0.1,0.4-0.1,0.6v3.8h-1.1V80.1z"/>
			<path class="st2" d="M232.1,81.5c0,2.3-1.6,3.3-3.1,3.3c-1.7,0-3-1.2-3-3.2c0-2.1,1.4-3.3,3.1-3.3
				C230.9,78.2,232.1,79.5,232.1,81.5z M227.1,81.5c0,1.4,0.8,2.4,1.9,2.4c1.1,0,1.9-1,1.9-2.4c0-1.1-0.5-2.4-1.9-2.4
				C227.7,79.1,227.1,80.3,227.1,81.5z"/>
			<path class="st2" d="M236.9,83.3c0.5,0.3,1.2,0.6,2,0.6c1.2,0,1.8-0.6,1.8-1.5c0-0.8-0.5-1.3-1.7-1.7c-1.4-0.5-2.3-1.2-2.3-2.5
				c0-1.4,1.1-2.4,2.8-2.4c0.9,0,1.5,0.2,1.9,0.4l-0.3,0.9c-0.3-0.2-0.9-0.4-1.7-0.4c-1.2,0-1.7,0.7-1.7,1.3c0,0.8,0.5,1.2,1.7,1.7
				c1.5,0.6,2.2,1.3,2.2,2.6c0,1.4-1,2.5-3.1,2.5c-0.8,0-1.8-0.2-2.2-0.6L236.9,83.3z"/>
			<path class="st2" d="M249,83c0,0.7,0,1.2,0.1,1.7h-1l-0.1-1h0c-0.3,0.5-1,1.2-2.1,1.2c-1,0-2.2-0.5-2.2-2.8v-3.7h1.1v3.5
				c0,1.2,0.4,2,1.4,2c0.8,0,1.3-0.5,1.5-1c0.1-0.2,0.1-0.4,0.1-0.6v-3.9h1.1V83z"/>
			<path class="st2" d="M251.2,80.4c0-0.8,0-1.5-0.1-2.1h1l0.1,1.1h0c0.5-0.8,1.2-1.2,2.2-1.2c1.5,0,2.7,1.3,2.7,3.2
				c0,2.3-1.4,3.4-2.9,3.4c-0.8,0-1.6-0.4-1.9-1h0v3.4h-1.1V80.4z M252.3,82.1c0,0.2,0,0.3,0.1,0.5c0.2,0.8,0.9,1.3,1.7,1.3
				c1.2,0,1.9-1,1.9-2.4c0-1.3-0.7-2.3-1.9-2.3c-0.8,0-1.5,0.6-1.7,1.4c0,0.1-0.1,0.3-0.1,0.5V82.1z"/>
			<path class="st2" d="M259.5,81.7c0,1.5,1,2.2,2.2,2.2c0.8,0,1.3-0.1,1.7-0.3l0.2,0.8c-0.4,0.2-1.1,0.4-2.1,0.4
				c-1.9,0-3.1-1.3-3.1-3.2s1.1-3.4,3-3.4c2.1,0,2.6,1.8,2.6,3c0,0.2,0,0.4,0,0.5H259.5z M262.9,80.9c0-0.7-0.3-1.9-1.6-1.9
				c-1.2,0-1.7,1.1-1.8,1.9H262.9z"/>
			<path class="st2" d="M265.8,80.3c0-0.7,0-1.4-0.1-2h1l0,1.2h0.1c0.3-0.8,1-1.4,1.7-1.4c0.1,0,0.2,0,0.3,0v1.1c-0.1,0-0.2,0-0.4,0
				c-0.8,0-1.4,0.6-1.5,1.5c0,0.2-0.1,0.3-0.1,0.5v3.4h-1.1V80.3z"/>
			<path class="st2" d="M271.7,76.6c0,0.4-0.3,0.7-0.7,0.7c-0.4,0-0.7-0.3-0.7-0.7c0-0.4,0.3-0.7,0.7-0.7
				C271.4,75.9,271.7,76.2,271.7,76.6z M270.4,84.7v-6.3h1.1v6.3H270.4z"/>
			<path class="st2" d="M279.4,81.5c0,2.3-1.6,3.3-3.1,3.3c-1.7,0-3-1.2-3-3.2c0-2.1,1.4-3.3,3.1-3.3
				C278.2,78.2,279.4,79.5,279.4,81.5z M274.4,81.5c0,1.4,0.8,2.4,1.9,2.4c1.1,0,1.9-1,1.9-2.4c0-1.1-0.5-2.4-1.9-2.4
				C275,79.1,274.4,80.3,274.4,81.5z"/>
			<path class="st2" d="M281.2,80.3c0-0.7,0-1.4-0.1-2h1l0,1.2h0.1c0.3-0.8,1-1.4,1.7-1.4c0.1,0,0.2,0,0.3,0v1.1c-0.1,0-0.2,0-0.4,0
				c-0.8,0-1.4,0.6-1.5,1.5c0,0.2-0.1,0.3-0.1,0.5v3.4h-1.1V80.3z"/>
		</g>
	</g>
	<g>
		<path class="st2" d="M186.2,269.9c0.5-0.1,1.3-0.2,2.1-0.2c1.1,0,1.9,0.2,2.4,0.6c0.5,0.3,0.7,0.9,0.7,1.5c0,0.8-0.6,1.6-1.5,1.9
			v0c0.8,0.2,1.8,0.9,1.8,2.2c0,0.8-0.3,1.3-0.7,1.8c-0.6,0.6-1.6,0.8-3,0.8c-0.8,0-1.4-0.1-1.8-0.1V269.9z M187.3,273.5h1
			c1.2,0,1.9-0.6,1.9-1.5c0-1-0.8-1.4-1.9-1.4c-0.5,0-0.8,0-1,0.1V273.5z M187.3,277.7c0.2,0,0.5,0.1,0.9,0.1c1.2,0,2.2-0.4,2.2-1.7
			c0-1.2-1-1.7-2.3-1.7h-0.9V277.7z"/>
		<path class="st2" d="M194.8,270.5c0,0.4-0.3,0.7-0.7,0.7c-0.4,0-0.7-0.3-0.7-0.7c0-0.4,0.3-0.7,0.7-0.7
			C194.5,269.8,194.8,270.1,194.8,270.5z M193.5,278.6v-6.3h1.1v6.3H193.5z"/>
		<path class="st2" d="M202.3,272.3c0,0.5-0.1,1-0.1,1.7v3.7c0,1.4-0.3,2.3-0.9,2.9c-0.6,0.6-1.5,0.8-2.3,0.8
			c-0.8,0-1.6-0.2-2.1-0.5l0.3-0.9c0.4,0.3,1.1,0.5,1.8,0.5c1.2,0,2-0.6,2-2.2v-0.7h0c-0.4,0.6-1,1.1-2,1.1c-1.6,0-2.7-1.3-2.7-3.1
			c0-2.1,1.4-3.3,2.8-3.3c1.1,0,1.7,0.6,2,1.1h0l0.1-0.9H202.3z M201.1,274.8c0-0.2,0-0.4-0.1-0.5c-0.2-0.7-0.8-1.2-1.6-1.2
			c-1.1,0-1.9,0.9-1.9,2.4c0,1.2,0.6,2.3,1.9,2.3c0.7,0,1.3-0.4,1.6-1.2c0.1-0.2,0.1-0.4,0.1-0.6V274.8z"/>
		<path class="st2" d="M210.1,275.4c0,2.3-1.6,3.3-3.1,3.3c-1.7,0-3-1.2-3-3.2c0-2.1,1.4-3.3,3.1-3.3
			C208.9,272.1,210.1,273.5,210.1,275.4z M205.1,275.4c0,1.4,0.8,2.4,1.9,2.4c1.1,0,1.9-1,1.9-2.4c0-1.1-0.5-2.4-1.9-2.4
			C205.7,273,205.1,274.3,205.1,275.4z"/>
		<path class="st2" d="M213.3,270.5v1.8h1.6v0.9h-1.6v3.4c0,0.8,0.2,1.2,0.9,1.2c0.3,0,0.5,0,0.7-0.1l0.1,0.9
			c-0.2,0.1-0.6,0.2-1,0.2c-0.5,0-1-0.2-1.2-0.5c-0.3-0.3-0.4-0.9-0.4-1.6v-3.4h-1v-0.9h1v-1.5L213.3,270.5z"/>
		<path class="st2" d="M217.1,275.6c0,1.5,1,2.2,2.2,2.2c0.8,0,1.3-0.1,1.7-0.3l0.2,0.8c-0.4,0.2-1.1,0.4-2.1,0.4
			c-1.9,0-3.1-1.3-3.1-3.2c0-1.9,1.1-3.4,3-3.4c2.1,0,2.6,1.8,2.6,3c0,0.2,0,0.4,0,0.5H217.1z M220.4,274.8c0-0.7-0.3-1.9-1.6-1.9
			c-1.2,0-1.7,1.1-1.8,1.9H220.4z"/>
	</g>
	<g>
		<path class="st2" d="M192.3,123.5c-0.4,0.2-1.2,0.4-2.3,0.4c-2.5,0-4.3-1.6-4.3-4.4c0-2.7,1.9-4.6,4.6-4.6c1.1,0,1.8,0.2,2.1,0.4
			l-0.3,0.9c-0.4-0.2-1-0.4-1.8-0.4c-2.1,0-3.4,1.3-3.4,3.6c0,2.1,1.2,3.5,3.4,3.5c0.7,0,1.4-0.1,1.8-0.4L192.3,123.5z"/>
		<path class="st2" d="M199.1,122.1c0,0.7,0,1.2,0.1,1.7h-1l-0.1-1h0c-0.3,0.5-1,1.2-2.1,1.2c-1,0-2.2-0.5-2.2-2.8v-3.7h1.1v3.5
			c0,1.2,0.4,2,1.4,2c0.8,0,1.3-0.5,1.5-1c0.1-0.2,0.1-0.4,0.1-0.6v-3.9h1.1V122.1z"/>
		<path class="st2" d="M204.8,123.8l-0.1-0.8h0c-0.4,0.5-1,0.9-1.9,0.9c-1.3,0-1.9-0.9-1.9-1.8c0-1.5,1.4-2.4,3.8-2.3v-0.1
			c0-0.5-0.1-1.5-1.4-1.5c-0.6,0-1.2,0.2-1.6,0.5l-0.3-0.8c0.5-0.3,1.3-0.6,2.1-0.6c1.9,0,2.4,1.3,2.4,2.6v2.4c0,0.5,0,1.1,0.1,1.5
			H204.8z M204.6,120.6c-1.2,0-2.7,0.2-2.7,1.4c0,0.7,0.5,1.1,1.1,1.1c0.8,0,1.3-0.5,1.5-1.1c0-0.1,0.1-0.2,0.1-0.4V120.6z"/>
		<path class="st2" d="M207.9,119.5c0-0.7,0-1.4-0.1-2h1l0,1.2h0.1c0.3-0.8,1-1.4,1.7-1.4c0.1,0,0.2,0,0.3,0v1.1c-0.1,0-0.2,0-0.4,0
			c-0.8,0-1.4,0.6-1.5,1.5c0,0.2-0.1,0.3-0.1,0.5v3.4h-1.1V119.5z"/>
		<path class="st2" d="M214.2,115.7v1.8h1.6v0.9h-1.6v3.4c0,0.8,0.2,1.2,0.9,1.2c0.3,0,0.5,0,0.7-0.1l0.1,0.9
			c-0.2,0.1-0.6,0.2-1,0.2c-0.5,0-1-0.2-1.2-0.5c-0.3-0.3-0.4-0.9-0.4-1.6v-3.4h-1v-0.9h1V116L214.2,115.7z"/>
		<path class="st2" d="M218.7,115.8c0,0.4-0.3,0.7-0.7,0.7c-0.4,0-0.7-0.3-0.7-0.7c0-0.4,0.3-0.7,0.7-0.7
			C218.4,115.1,218.7,115.4,218.7,115.8z M217.4,123.8v-6.3h1.1v6.3H217.4z"/>
		<path class="st2" d="M220.8,114.6h1.1v9.2h-1.1V114.6z"/>
		<path class="st2" d="M227.1,122.5c0.5,0.3,1.2,0.6,2,0.6c1.2,0,1.8-0.6,1.8-1.5c0-0.8-0.5-1.3-1.7-1.7c-1.4-0.5-2.3-1.2-2.3-2.5
			c0-1.4,1.1-2.4,2.8-2.4c0.9,0,1.5,0.2,1.9,0.4l-0.3,0.9c-0.3-0.2-0.9-0.4-1.7-0.4c-1.2,0-1.7,0.7-1.7,1.3c0,0.8,0.5,1.2,1.7,1.7
			c1.5,0.6,2.2,1.3,2.2,2.6c0,1.4-1,2.5-3.1,2.5c-0.8,0-1.8-0.2-2.2-0.6L227.1,122.5z"/>
		<path class="st2" d="M239.3,122.1c0,0.7,0,1.2,0.1,1.7h-1l-0.1-1h0c-0.3,0.5-1,1.2-2.1,1.2c-1,0-2.2-0.5-2.2-2.8v-3.7h1.1v3.5
			c0,1.2,0.4,2,1.4,2c0.8,0,1.3-0.5,1.5-1c0.1-0.2,0.1-0.4,0.1-0.6v-3.9h1.1V122.1z"/>
		<path class="st2" d="M241.5,119.6c0-0.8,0-1.5-0.1-2.1h1l0.1,1.1h0c0.5-0.8,1.2-1.2,2.2-1.2c1.5,0,2.7,1.3,2.7,3.2
			c0,2.3-1.4,3.4-2.9,3.4c-0.8,0-1.6-0.4-1.9-1h0v3.4h-1.1V119.6z M242.6,121.3c0,0.2,0,0.3,0.1,0.5c0.2,0.8,0.9,1.3,1.7,1.3
			c1.2,0,1.9-1,1.9-2.4c0-1.3-0.7-2.3-1.9-2.3c-0.8,0-1.5,0.6-1.7,1.4c0,0.1-0.1,0.3-0.1,0.5V121.3z"/>
		<path class="st2" d="M249.8,120.9c0,1.5,1,2.2,2.2,2.2c0.8,0,1.3-0.1,1.7-0.3l0.2,0.8c-0.4,0.2-1.1,0.4-2.1,0.4
			c-1.9,0-3.1-1.3-3.1-3.2s1.1-3.4,3-3.4c2.1,0,2.6,1.8,2.6,3c0,0.2,0,0.4,0,0.5H249.8z M253.2,120.1c0-0.7-0.3-1.9-1.6-1.9
			c-1.2,0-1.7,1.1-1.8,1.9H253.2z"/>
		<path class="st2" d="M256,119.5c0-0.7,0-1.4-0.1-2h1l0,1.2h0.1c0.3-0.8,1-1.4,1.7-1.4c0.1,0,0.2,0,0.3,0v1.1c-0.1,0-0.2,0-0.4,0
			c-0.8,0-1.4,0.6-1.5,1.5c0,0.2-0.1,0.3-0.1,0.5v3.4H256V119.5z"/>
		<path class="st2" d="M261.9,115.8c0,0.4-0.3,0.7-0.7,0.7c-0.4,0-0.7-0.3-0.7-0.7c0-0.4,0.3-0.7,0.7-0.7
			C261.7,115.1,261.9,115.4,261.9,115.8z M260.7,123.8v-6.3h1.1v6.3H260.7z"/>
		<path class="st2" d="M269.7,120.6c0,2.3-1.6,3.3-3.1,3.3c-1.7,0-3-1.2-3-3.2c0-2.1,1.4-3.3,3.1-3.3
			C268.5,117.4,269.7,118.7,269.7,120.6z M264.7,120.7c0,1.4,0.8,2.4,1.9,2.4c1.1,0,1.9-1,1.9-2.4c0-1.1-0.5-2.4-1.9-2.4
			C265.3,118.3,264.7,119.5,264.7,120.7z"/>
		<path class="st2" d="M271.5,119.5c0-0.7,0-1.4-0.1-2h1l0,1.2h0.1c0.3-0.8,1-1.4,1.7-1.4c0.1,0,0.2,0,0.3,0v1.1c-0.1,0-0.2,0-0.4,0
			c-0.8,0-1.4,0.6-1.5,1.5c0,0.2-0.1,0.3-0.1,0.5v3.4h-1.1V119.5z"/>
	</g>
	<g>
		<path class="st2" d="M193.5,182.5c-0.1-1.2-0.1-2.7-0.1-3.8h0c-0.3,1-0.7,2.1-1.1,3.3l-1.5,4.3h-0.9l-1.4-4.2
			c-0.4-1.2-0.8-2.4-1-3.4h0c0,1.1-0.1,2.6-0.2,3.9l-0.2,3.8h-1.1l0.6-8.8h1.4l1.5,4.2c0.4,1.1,0.7,2,0.9,3h0c0.2-0.9,0.5-1.8,0.9-3
			l1.6-4.2h1.4l0.5,8.8h-1.1L193.5,182.5z"/>
		<path class="st2" d="M197.6,183.4c0,1.5,1,2.2,2.2,2.2c0.8,0,1.3-0.1,1.7-0.3l0.2,0.8c-0.4,0.2-1.1,0.4-2.1,0.4
			c-1.9,0-3.1-1.3-3.1-3.2s1.1-3.4,3-3.4c2.1,0,2.6,1.8,2.6,3c0,0.2,0,0.4,0,0.5H197.6z M201,182.6c0-0.7-0.3-1.9-1.6-1.9
			c-1.2,0-1.7,1.1-1.8,1.9H201z"/>
		<path class="st2" d="M209.2,177.1v7.6c0,0.6,0,1.2,0.1,1.6h-1l-0.1-1.1h0c-0.4,0.7-1.1,1.2-2.1,1.2c-1.5,0-2.7-1.3-2.7-3.2
			c0-2.1,1.3-3.4,2.8-3.4c1,0,1.6,0.5,1.9,1h0v-3.8H209.2z M208.1,182.6c0-0.1,0-0.3-0.1-0.5c-0.2-0.7-0.8-1.3-1.7-1.3
			c-1.2,0-1.9,1-1.9,2.4c0,1.3,0.6,2.3,1.9,2.3c0.8,0,1.5-0.5,1.7-1.4c0-0.2,0.1-0.3,0.1-0.5V182.6z"/>
		<path class="st2" d="M212.7,178.3c0,0.4-0.3,0.7-0.7,0.7c-0.4,0-0.7-0.3-0.7-0.7c0-0.4,0.3-0.7,0.7-0.7
			C212.5,177.6,212.7,177.9,212.7,178.3z M211.5,186.3V180h1.1v6.3H211.5z"/>
		<path class="st2" d="M218.3,186.3l-0.1-0.8h0c-0.4,0.5-1,0.9-1.9,0.9c-1.3,0-1.9-0.9-1.9-1.8c0-1.5,1.4-2.4,3.8-2.3v-0.1
			c0-0.5-0.1-1.5-1.4-1.5c-0.6,0-1.2,0.2-1.6,0.5l-0.3-0.8c0.5-0.3,1.3-0.6,2.1-0.6c1.9,0,2.4,1.3,2.4,2.6v2.4c0,0.5,0,1.1,0.1,1.5
			H218.3z M218.1,183.1c-1.2,0-2.7,0.2-2.7,1.4c0,0.7,0.5,1.1,1.1,1.1c0.8,0,1.3-0.5,1.5-1.1c0-0.1,0.1-0.2,0.1-0.4V183.1z"/>
		<path class="st2" d="M221.4,181.7c0-0.6,0-1.2-0.1-1.7h1l0.1,1h0c0.3-0.6,1-1.2,2.1-1.2c0.9,0,2.2,0.5,2.2,2.7v3.8h-1.1v-3.6
			c0-1-0.4-1.9-1.5-1.9c-0.8,0-1.3,0.5-1.5,1.2c-0.1,0.1-0.1,0.3-0.1,0.5v3.8h-1.1V181.7z"/>
		<path class="st2" d="M232.4,186.3l-0.1-0.8h0c-0.4,0.5-1,0.9-1.9,0.9c-1.3,0-1.9-0.9-1.9-1.8c0-1.5,1.4-2.4,3.8-2.3v-0.1
			c0-0.5-0.1-1.5-1.4-1.5c-0.6,0-1.2,0.2-1.6,0.5l-0.3-0.8c0.5-0.3,1.3-0.6,2.1-0.6c1.9,0,2.4,1.3,2.4,2.6v2.4c0,0.5,0,1.1,0.1,1.5
			H232.4z M232.3,183.1c-1.2,0-2.7,0.2-2.7,1.4c0,0.7,0.5,1.1,1.1,1.1c0.8,0,1.3-0.5,1.5-1.1c0-0.1,0.1-0.2,0.1-0.4V183.1z"/>
	</g>
	<g>
		<path class="st2" d="M192.3,249.7c-0.4,0.2-1.2,0.4-2.3,0.4c-2.5,0-4.3-1.6-4.3-4.4c0-2.7,1.9-4.6,4.6-4.6c1.1,0,1.8,0.2,2.1,0.4
			l-0.3,0.9c-0.4-0.2-1-0.4-1.8-0.4c-2.1,0-3.4,1.3-3.4,3.6c0,2.1,1.2,3.5,3.4,3.5c0.7,0,1.4-0.1,1.8-0.4L192.3,249.7z"/>
		<path class="st2" d="M199.1,248.3c0,0.6,0,1.2,0.1,1.7h-1l-0.1-1h0c-0.3,0.5-1,1.2-2.1,1.2c-1,0-2.2-0.5-2.2-2.8v-3.7h1.1v3.5
			c0,1.2,0.4,2,1.4,2c0.8,0,1.3-0.5,1.5-1c0.1-0.2,0.1-0.4,0.1-0.6v-3.9h1.1V248.3z"/>
		<path class="st2" d="M204.8,250l-0.1-0.8h0c-0.4,0.5-1,0.9-1.9,0.9c-1.3,0-1.9-0.9-1.9-1.8c0-1.5,1.4-2.4,3.8-2.3v-0.1
			c0-0.5-0.1-1.5-1.4-1.5c-0.6,0-1.2,0.2-1.6,0.5l-0.3-0.8c0.5-0.3,1.3-0.6,2.1-0.6c1.9,0,2.4,1.3,2.4,2.6v2.4c0,0.5,0,1.1,0.1,1.5
			H204.8z M204.6,246.8c-1.2,0-2.7,0.2-2.7,1.4c0,0.7,0.5,1.1,1.1,1.1c0.8,0,1.3-0.5,1.5-1.1c0-0.1,0.1-0.2,0.1-0.4V246.8z"/>
		<path class="st2" d="M207.9,245.7c0-0.7,0-1.4-0.1-2h1l0,1.2h0.1c0.3-0.8,1-1.4,1.7-1.4c0.1,0,0.2,0,0.3,0v1.1c-0.1,0-0.2,0-0.4,0
			c-0.8,0-1.4,0.6-1.5,1.5c0,0.2-0.1,0.3-0.1,0.5v3.4h-1.1V245.7z"/>
		<path class="st2" d="M214.2,241.9v1.8h1.6v0.9h-1.6v3.4c0,0.8,0.2,1.2,0.9,1.2c0.3,0,0.5,0,0.7-0.1l0.1,0.9
			c-0.2,0.1-0.6,0.2-1,0.2c-0.5,0-1-0.2-1.2-0.5c-0.3-0.3-0.4-0.9-0.4-1.6v-3.4h-1v-0.9h1v-1.5L214.2,241.9z"/>
		<path class="st2" d="M218.7,241.9c0,0.4-0.3,0.7-0.7,0.7c-0.4,0-0.7-0.3-0.7-0.7c0-0.4,0.3-0.7,0.7-0.7
			C218.4,241.2,218.7,241.5,218.7,241.9z M217.4,250v-6.3h1.1v6.3H217.4z"/>
		<path class="st2" d="M220.8,240.8h1.1v9.2h-1.1V240.8z"/>
		<path class="st2" d="M228.4,241.2v8.8h-1.1v-8.8H228.4z"/>
		<path class="st2" d="M230.8,245.4c0-0.7,0-1.2-0.1-1.7h1l0.1,1h0c0.3-0.6,1-1.2,2.1-1.2c0.9,0,2.2,0.5,2.2,2.7v3.8H235v-3.6
			c0-1-0.4-1.9-1.5-1.9c-0.8,0-1.3,0.5-1.5,1.2c-0.1,0.1-0.1,0.3-0.1,0.5v3.8h-1.1V245.4z"/>
		<path class="st2" d="M238.5,250v-5.4h-0.9v-0.9h0.9v-0.3c0-0.9,0.2-1.7,0.7-2.2c0.4-0.4,1-0.6,1.5-0.6c0.4,0,0.8,0.1,1,0.2
			l-0.2,0.9c-0.2-0.1-0.4-0.1-0.7-0.1c-1,0-1.2,0.9-1.2,1.8v0.3h1.5v0.9h-1.5v5.4H238.5z"/>
		<path class="st2" d="M242.9,247.1c0,1.5,1,2.2,2.2,2.2c0.8,0,1.3-0.1,1.7-0.3l0.2,0.8c-0.4,0.2-1.1,0.4-2.1,0.4
			c-1.9,0-3.1-1.3-3.1-3.2c0-1.9,1.1-3.4,3-3.4c2.1,0,2.6,1.8,2.6,3c0,0.2,0,0.4,0,0.5H242.9z M246.3,246.2c0-0.7-0.3-1.9-1.6-1.9
			c-1.2,0-1.7,1.1-1.8,1.9H246.3z"/>
		<path class="st2" d="M249.2,245.7c0-0.7,0-1.4-0.1-2h1l0,1.2h0.1c0.3-0.8,1-1.4,1.7-1.4c0.1,0,0.2,0,0.3,0v1.1c-0.1,0-0.2,0-0.4,0
			c-0.8,0-1.4,0.6-1.5,1.5c0,0.2-0.1,0.3-0.1,0.5v3.4h-1.1V245.7z"/>
		<path class="st2" d="M255.1,241.9c0,0.4-0.3,0.7-0.7,0.7c-0.4,0-0.7-0.3-0.7-0.7c0-0.4,0.3-0.7,0.7-0.7
			C254.8,241.2,255.1,241.5,255.1,241.9z M253.8,250v-6.3h1.1v6.3H253.8z"/>
		<path class="st2" d="M262.8,246.8c0,2.3-1.6,3.3-3.1,3.3c-1.7,0-3-1.2-3-3.2c0-2.1,1.4-3.3,3.1-3.3
			C261.6,243.6,262.8,244.9,262.8,246.8z M257.8,246.9c0,1.4,0.8,2.4,1.9,2.4c1.1,0,1.9-1,1.9-2.4c0-1.1-0.5-2.4-1.9-2.4
			C258.4,244.4,257.8,245.7,257.8,246.9z"/>
		<path class="st2" d="M264.6,245.7c0-0.7,0-1.4-0.1-2h1l0,1.2h0.1c0.3-0.8,1-1.4,1.7-1.4c0.1,0,0.2,0,0.3,0v1.1c-0.1,0-0.2,0-0.4,0
			c-0.8,0-1.4,0.6-1.5,1.5c0,0.2-0.1,0.3-0.1,0.5v3.4h-1.1V245.7z"/>
	</g>
	<g>
		<path class="st2" d="M190.7,304.2h-3.4v3.2h3.8v0.9h-4.9v-8.8h4.7v0.9h-3.6v2.8h3.4V304.2z"/>
		<path class="st2" d="M193.4,302l0.9,1.4c0.2,0.4,0.4,0.7,0.6,1h0c0.2-0.4,0.4-0.7,0.6-1l0.9-1.3h1.2l-2.1,3l2.2,3.2h-1.3l-0.9-1.4
			c-0.2-0.4-0.5-0.7-0.7-1.1h0c-0.2,0.4-0.4,0.7-0.7,1.1l-0.9,1.4H192l2.2-3.2l-2.1-3.1H193.4z"/>
		<path class="st2" d="M200.7,300.2v1.8h1.6v0.9h-1.6v3.4c0,0.8,0.2,1.2,0.9,1.2c0.3,0,0.5,0,0.7-0.1l0.1,0.9
			c-0.2,0.1-0.6,0.2-1,0.2c-0.5,0-1-0.2-1.2-0.5c-0.3-0.3-0.4-0.9-0.4-1.6v-3.4h-1V302h1v-1.5L200.7,300.2z"/>
		<path class="st2" d="M204,304c0-0.7,0-1.4-0.1-2h1l0,1.2h0.1c0.3-0.8,1-1.4,1.7-1.4c0.1,0,0.2,0,0.3,0v1.1c-0.1,0-0.2,0-0.4,0
			c-0.8,0-1.4,0.6-1.5,1.5c0,0.2-0.1,0.3-0.1,0.5v3.4H204V304z"/>
		<path class="st2" d="M209.1,305.4c0,1.5,1,2.2,2.2,2.2c0.8,0,1.3-0.1,1.7-0.3l0.2,0.8c-0.4,0.2-1.1,0.4-2.1,0.4
			c-1.9,0-3.1-1.3-3.1-3.2s1.1-3.4,3-3.4c2.1,0,2.6,1.8,2.6,3c0,0.2,0,0.4,0,0.5H209.1z M212.4,304.6c0-0.7-0.3-1.9-1.6-1.9
			c-1.2,0-1.7,1.1-1.8,1.9H212.4z"/>
		<path class="st2" d="M215.3,303.7c0-0.7,0-1.2-0.1-1.7h1l0.1,1h0c0.4-0.6,0.9-1.2,2-1.2c0.9,0,1.5,0.5,1.8,1.3h0
			c0.2-0.4,0.4-0.6,0.7-0.8c0.4-0.3,0.8-0.4,1.4-0.4c0.8,0,2.1,0.5,2.1,2.7v3.7h-1.1v-3.6c0-1.2-0.4-1.9-1.4-1.9
			c-0.7,0-1.2,0.5-1.4,1c-0.1,0.2-0.1,0.4-0.1,0.6v3.9h-1.1v-3.8c0-1-0.4-1.7-1.3-1.7c-0.7,0-1.2,0.6-1.4,1.1
			c-0.1,0.2-0.1,0.4-0.1,0.6v3.8h-1.1V303.7z"/>
		<path class="st2" d="M232.1,305.1c0,2.3-1.6,3.3-3.1,3.3c-1.7,0-3-1.2-3-3.2c0-2.1,1.4-3.3,3.1-3.3
			C230.9,301.9,232.1,303.2,232.1,305.1z M227.1,305.2c0,1.4,0.8,2.4,1.9,2.4c1.1,0,1.9-1,1.9-2.4c0-1.1-0.5-2.4-1.9-2.4
			C227.7,302.8,227.1,304,227.1,305.2z"/>
		<path class="st2" d="M238.1,299.6v8.8H237v-8.8H238.1z"/>
		<path class="st2" d="M240.5,303.7c0-0.7,0-1.2-0.1-1.7h1l0.1,1h0c0.3-0.6,1-1.2,2.1-1.2c0.9,0,2.2,0.5,2.2,2.7v3.8h-1.1v-3.6
			c0-1-0.4-1.9-1.5-1.9c-0.8,0-1.3,0.5-1.5,1.2c-0.1,0.1-0.1,0.3-0.1,0.5v3.8h-1.1V303.7z"/>
		<path class="st2" d="M248.2,308.3v-5.4h-0.9V302h0.9v-0.3c0-0.9,0.2-1.7,0.7-2.2c0.4-0.4,1-0.6,1.5-0.6c0.4,0,0.8,0.1,1,0.2
			l-0.2,0.9c-0.2-0.1-0.4-0.1-0.7-0.1c-1,0-1.2,0.9-1.2,1.8v0.3h1.5v0.9h-1.5v5.4H248.2z"/>
		<path class="st2" d="M252.7,305.4c0,1.5,1,2.2,2.2,2.2c0.8,0,1.3-0.1,1.7-0.3l0.2,0.8c-0.4,0.2-1.1,0.4-2.1,0.4
			c-1.9,0-3.1-1.3-3.1-3.2s1.1-3.4,3-3.4c2.1,0,2.6,1.8,2.6,3c0,0.2,0,0.4,0,0.5H252.7z M256,304.6c0-0.7-0.3-1.9-1.6-1.9
			c-1.2,0-1.7,1.1-1.8,1.9H256z"/>
		<path class="st2" d="M258.9,304c0-0.7,0-1.4-0.1-2h1l0,1.2h0.1c0.3-0.8,1-1.4,1.7-1.4c0.1,0,0.2,0,0.3,0v1.1c-0.1,0-0.2,0-0.4,0
			c-0.8,0-1.4,0.6-1.5,1.5c0,0.2-0.1,0.3-0.1,0.5v3.4h-1.1V304z"/>
		<path class="st2" d="M264.8,300.3c0,0.4-0.3,0.7-0.7,0.7c-0.4,0-0.7-0.3-0.7-0.7c0-0.4,0.3-0.7,0.7-0.7
			C264.5,299.6,264.8,299.9,264.8,300.3z M263.5,308.3V302h1.1v6.3H263.5z"/>
		<path class="st2" d="M272.6,305.1c0,2.3-1.6,3.3-3.1,3.3c-1.7,0-3-1.2-3-3.2c0-2.1,1.4-3.3,3.1-3.3
			C271.3,301.9,272.6,303.2,272.6,305.1z M267.6,305.2c0,1.4,0.8,2.4,1.9,2.4c1.1,0,1.9-1,1.9-2.4c0-1.1-0.5-2.4-1.9-2.4
			C268.1,302.8,267.6,304,267.6,305.2z"/>
		<path class="st2" d="M274.3,304c0-0.7,0-1.4-0.1-2h1l0,1.2h0.1c0.3-0.8,1-1.4,1.7-1.4c0.1,0,0.2,0,0.3,0v1.1c-0.1,0-0.2,0-0.4,0
			c-0.8,0-1.4,0.6-1.5,1.5c0,0.2-0.1,0.3-0.1,0.5v3.4h-1.1V304z"/>
	</g>
	<g>
		<path class="st2" d="M187.6,333.6l-0.9,2.8h-1.2l3-8.8h1.4l3,8.8h-1.2l-0.9-2.8H187.6z M190.4,332.7l-0.9-2.5
			c-0.2-0.6-0.3-1.1-0.5-1.6h0c-0.1,0.5-0.3,1.1-0.4,1.6l-0.9,2.5H190.4z"/>
		<path class="st2" d="M195.6,328.2v1.8h1.6v0.9h-1.6v3.4c0,0.8,0.2,1.2,0.9,1.2c0.3,0,0.5,0,0.7-0.1l0.1,0.9
			c-0.2,0.1-0.6,0.2-1,0.2c-0.5,0-1-0.2-1.2-0.5c-0.3-0.3-0.4-0.9-0.4-1.6v-3.4h-1V330h1v-1.5L195.6,328.2z"/>
		<path class="st2" d="M201.2,327.3l-1.6,1.9h-0.8l1.1-1.9H201.2z M198.9,336.3V330h1.1v6.3H198.9z"/>
		<path class="st2" d="M202.3,332.1c0-0.8,0-1.5-0.1-2.1h1l0.1,1.1h0c0.5-0.8,1.2-1.2,2.2-1.2c1.5,0,2.7,1.3,2.7,3.2
			c0,2.3-1.4,3.4-2.9,3.4c-0.8,0-1.6-0.4-1.9-1h0v3.4h-1.1V332.1z M203.4,333.8c0,0.2,0,0.3,0.1,0.5c0.2,0.8,0.9,1.3,1.7,1.3
			c1.2,0,1.9-1,1.9-2.4c0-1.3-0.7-2.3-1.9-2.3c-0.8,0-1.5,0.6-1.7,1.4c0,0.1-0.1,0.3-0.1,0.5V333.8z"/>
		<path class="st2" d="M211.3,328.3c0,0.4-0.3,0.7-0.7,0.7c-0.4,0-0.7-0.3-0.7-0.7c0-0.4,0.3-0.7,0.7-0.7
			C211,327.6,211.3,327.9,211.3,328.3z M210,336.3V330h1.1v6.3H210z"/>
		<path class="st2" d="M217.8,336.1c-0.3,0.2-1,0.4-1.8,0.4c-1.9,0-3.1-1.3-3.1-3.2c0-1.9,1.3-3.3,3.4-3.3c0.7,0,1.3,0.2,1.6,0.3
			l-0.3,0.9c-0.3-0.2-0.7-0.3-1.3-0.3c-1.4,0-2.2,1.1-2.2,2.4c0,1.5,0.9,2.4,2.2,2.4c0.7,0,1.1-0.2,1.4-0.3L217.8,336.1z"/>
		<path class="st2" d="M225.1,333.1c0,2.3-1.6,3.3-3.1,3.3c-1.7,0-3-1.2-3-3.2c0-2.1,1.4-3.3,3.1-3.3
			C223.9,329.9,225.1,331.2,225.1,333.1z M220.1,333.2c0,1.4,0.8,2.4,1.9,2.4c1.1,0,1.9-1,1.9-2.4c0-1.1-0.5-2.4-1.9-2.4
			C220.7,330.8,220.1,332,220.1,333.2z"/>
		<path class="st2" d="M225.9,336.9l3.6-9.4h0.9l-3.6,9.4H225.9z"/>
		<path class="st2" d="M231.7,327.7c0.5-0.1,1.3-0.2,2.2-0.2c1.1,0,1.9,0.3,2.5,0.7c0.5,0.4,0.8,1.1,0.8,1.8c0,0.8-0.2,1.4-0.7,1.9
			c-0.6,0.6-1.6,1-2.7,1c-0.3,0-0.7,0-0.9-0.1v3.5h-1.1V327.7z M232.8,331.9c0.2,0.1,0.6,0.1,0.9,0.1c1.4,0,2.2-0.7,2.2-1.9
			c0-1.2-0.8-1.7-2.1-1.7c-0.5,0-0.9,0-1.1,0.1V331.9z"/>
		<path class="st2" d="M244,334.6c0,0.6,0,1.2,0.1,1.7h-1l-0.1-1h0c-0.3,0.5-1,1.2-2.1,1.2c-1,0-2.2-0.5-2.2-2.8V330h1.1v3.5
			c0,1.2,0.4,2,1.4,2c0.8,0,1.3-0.5,1.5-1c0.1-0.2,0.1-0.4,0.1-0.6V330h1.1V334.6z"/>
		<path class="st2" d="M246.2,331.7c0-0.7,0-1.2-0.1-1.7h1l0.1,1h0c0.3-0.6,1-1.2,2.1-1.2c0.9,0,2.2,0.5,2.2,2.7v3.8h-1.1v-3.6
			c0-1-0.4-1.9-1.5-1.9c-0.8,0-1.3,0.5-1.5,1.2c-0.1,0.1-0.1,0.3-0.1,0.5v3.8h-1.1V331.7z"/>
		<path class="st2" d="M255.1,328.2v1.8h1.6v0.9h-1.6v3.4c0,0.8,0.2,1.2,0.9,1.2c0.3,0,0.5,0,0.7-0.1l0.1,0.9
			c-0.2,0.1-0.6,0.2-1,0.2c-0.5,0-1-0.2-1.2-0.5c-0.3-0.3-0.4-0.9-0.4-1.6v-3.4h-1V330h1v-1.5L255.1,328.2z"/>
		<path class="st2" d="M263.9,333.1c0,2.3-1.6,3.3-3.1,3.3c-1.7,0-3-1.2-3-3.2c0-2.1,1.4-3.3,3.1-3.3
			C262.7,329.9,263.9,331.2,263.9,333.1z M258.9,333.2c0,1.4,0.8,2.4,1.9,2.4c1.1,0,1.9-1,1.9-2.4c0-1.1-0.5-2.4-1.9-2.4
			C259.5,330.8,258.9,332,258.9,333.2z"/>
		<path class="st2" d="M274.2,327.1v7.6c0,0.6,0,1.2,0.1,1.6h-1l-0.1-1.1h0c-0.4,0.7-1.1,1.2-2.1,1.2c-1.5,0-2.7-1.3-2.7-3.2
			c0-2.1,1.3-3.4,2.8-3.4c1,0,1.6,0.5,1.9,1h0v-3.8H274.2z M273.1,332.6c0-0.1,0-0.3-0.1-0.5c-0.2-0.7-0.8-1.3-1.7-1.3
			c-1.2,0-1.9,1-1.9,2.4c0,1.3,0.6,2.3,1.9,2.3c0.8,0,1.5-0.5,1.7-1.4c0-0.2,0.1-0.3,0.1-0.5V332.6z"/>
		<path class="st2" d="M277.1,333.4c0,1.5,1,2.2,2.2,2.2c0.8,0,1.3-0.1,1.7-0.3l0.2,0.8c-0.4,0.2-1.1,0.4-2.1,0.4
			c-1.9,0-3.1-1.3-3.1-3.2s1.1-3.4,3-3.4c2.1,0,2.6,1.8,2.6,3c0,0.2,0,0.4,0,0.5H277.1z M280.4,332.6c0-0.7-0.3-1.9-1.6-1.9
			c-1.2,0-1.7,1.1-1.8,1.9H280.4z"/>
		<path class="st2" d="M186.2,343.3c0.7-0.1,1.5-0.2,2.4-0.2c1.6,0,2.8,0.4,3.5,1.1c0.8,0.7,1.2,1.7,1.2,3.1c0,1.4-0.4,2.6-1.3,3.4
			c-0.8,0.8-2.2,1.3-3.9,1.3c-0.8,0-1.5,0-2.1-0.1V343.3z M187.3,351c0.3,0.1,0.7,0.1,1.1,0.1c2.4,0,3.7-1.4,3.7-3.7
			c0-2.1-1.2-3.4-3.5-3.4c-0.6,0-1,0.1-1.3,0.1V351z"/>
		<path class="st2" d="M198.6,351.9l-0.1-0.8h0c-0.4,0.5-1,0.9-1.9,0.9c-1.3,0-1.9-0.9-1.9-1.8c0-1.5,1.4-2.4,3.8-2.3v-0.1
			c0-0.5-0.1-1.5-1.4-1.5c-0.6,0-1.2,0.2-1.6,0.5l-0.3-0.8c0.5-0.3,1.3-0.6,2.1-0.6c1.9,0,2.4,1.3,2.4,2.6v2.4c0,0.5,0,1.1,0.1,1.5
			H198.6z M198.4,348.7c-1.2,0-2.7,0.2-2.7,1.4c0,0.7,0.5,1.1,1.1,1.1c0.8,0,1.3-0.5,1.5-1.1c0-0.1,0.1-0.2,0.1-0.4V348.7z"/>
		<path class="st2" d="M203,343.8v1.8h1.6v0.9H203v3.4c0,0.8,0.2,1.2,0.9,1.2c0.3,0,0.5,0,0.7-0.1l0.1,0.9c-0.2,0.1-0.6,0.2-1,0.2
			c-0.5,0-1-0.2-1.2-0.5c-0.3-0.3-0.4-0.9-0.4-1.6v-3.4h-1v-0.9h1v-1.5L203,343.8z"/>
		<path class="st2" d="M211.9,348.7c0,2.3-1.6,3.3-3.1,3.3c-1.7,0-3-1.2-3-3.2c0-2.1,1.4-3.3,3.1-3.3
			C210.7,345.5,211.9,346.8,211.9,348.7z M206.9,348.8c0,1.4,0.8,2.4,1.9,2.4c1.1,0,1.9-1,1.9-2.4c0-1.1-0.5-2.4-1.9-2.4
			C207.5,346.4,206.9,347.6,206.9,348.8z"/>
		<path class="st2" d="M213.5,350.8c0.3,0.2,0.9,0.5,1.5,0.5c0.8,0,1.2-0.4,1.2-0.9c0-0.5-0.3-0.8-1.2-1.2c-1.1-0.4-1.7-1-1.7-1.8
			c0-1,0.8-1.8,2.2-1.8c0.6,0,1.2,0.2,1.5,0.4l-0.3,0.8c-0.2-0.2-0.7-0.4-1.3-0.4c-0.7,0-1.1,0.4-1.1,0.9c0,0.5,0.4,0.8,1.2,1.1
			c1.1,0.4,1.7,1,1.7,1.9c0,1.1-0.9,1.9-2.4,1.9c-0.7,0-1.3-0.2-1.8-0.4L213.5,350.8z"/>
		<path class="st2" d="M223.4,343.2v5.2c0,2,0.9,2.8,2,2.8c1.3,0,2.1-0.9,2.1-2.8v-5.2h1.1v5.1c0,2.7-1.4,3.8-3.3,3.8
			c-1.8,0-3.1-1-3.1-3.7v-5.2H223.4z M227.4,341.2l-1.7,1.5h-0.9l1.2-1.5H227.4z"/>
		<path class="st2" d="M230.9,347.3c0-0.7,0-1.2-0.1-1.7h1l0.1,1h0c0.3-0.6,1-1.2,2.1-1.2c0.9,0,2.2,0.5,2.2,2.7v3.8h-1.1v-3.6
			c0-1-0.4-1.9-1.5-1.9c-0.8,0-1.3,0.5-1.5,1.2c-0.1,0.1-0.1,0.3-0.1,0.5v3.8h-1.1V347.3z"/>
		<path class="st2" d="M239.8,343.9c0,0.4-0.3,0.7-0.7,0.7c-0.4,0-0.7-0.3-0.7-0.7c0-0.4,0.3-0.7,0.7-0.7
			C239.5,343.2,239.8,343.5,239.8,343.9z M238.5,351.9v-6.3h1.1v6.3H238.5z"/>
		<path class="st2" d="M246.3,351.7c-0.3,0.2-1,0.4-1.8,0.4c-1.9,0-3.1-1.3-3.1-3.2c0-1.9,1.3-3.3,3.4-3.3c0.7,0,1.3,0.2,1.6,0.3
			l-0.3,0.9c-0.3-0.2-0.7-0.3-1.3-0.3c-1.4,0-2.2,1.1-2.2,2.4c0,1.5,0.9,2.4,2.2,2.4c0.7,0,1.1-0.2,1.4-0.3L246.3,351.7z"/>
		<path class="st2" d="M253.6,348.7c0,2.3-1.6,3.3-3.1,3.3c-1.7,0-3-1.2-3-3.2c0-2.1,1.4-3.3,3.1-3.3
			C252.4,345.5,253.6,346.8,253.6,348.7z M248.6,348.8c0,1.4,0.8,2.4,1.9,2.4c1.1,0,1.9-1,1.9-2.4c0-1.1-0.5-2.4-1.9-2.4
			C249.2,346.4,248.6,347.6,248.6,348.8z"/>
	</g>
	<polygon class="st2" points="150.8,84.2 144.4,80.5 150.8,76.8 	"/>
	<polygon class="st2" points="47.1,35.8 43.4,42.2 39.8,35.8 	"/>
	<line class="st6" x1="146.8" y1="119.6" x2="179.5" y2="119.6"/>
	<line class="st6" x1="146.8" y1="80.7" x2="179.5" y2="80.7"/>
	<polygon class="st2" points="149,123.2 142.7,119.5 149,115.8 	"/>
	<line class="st6" x1="146.8" y1="181.6" x2="179.5" y2="181.6"/>
	<polygon class="st2" points="149,185.2 142.7,181.5 149,177.8 	"/>
	<line class="st6" x1="146.8" y1="245.7" x2="179.5" y2="245.7"/>
	<polygon class="st2" points="149,249.3 142.7,245.6 149,242 	"/>
	<line class="st6" x1="146.8" y1="303.5" x2="179.5" y2="303.5"/>
	<polygon class="st2" points="149,307.1 142.7,303.4 149,299.7 	"/>
	<line class="st6" x1="129.2" y1="275.2" x2="179.5" y2="275.2"/>
	<polygon class="st2" points="130.5,278.8 124.2,275.1 130.5,271.5 	"/>
	<line class="st6" x1="131.5" y1="332" x2="179.5" y2="332"/>
	<polygon class="st2" points="132.5,335.6 126.2,331.9 132.5,328.2 	"/>
	<g>
	</g>
	<g>
	</g>
	<g>
	</g>
	<g>
	</g>
	<g>
	</g>
	<g>
	</g>
	<g>
	</g>
	<g>
	</g>
	<g>
	</g>
	<g>
	</g>
</g>
</svg>
